<svg width="87" height="87" viewBox="0 0 87 87" fill="none" xmlns="http://www.w3.org/2000/svg">
<path d="M87 43.5C87 67.5244 67.5244 87 43.5 87C59.8366 87 73.08 73.7566 73.08 57.42C73.08 41.0834 59.8366 27.84 43.5 27.84C27.1634 27.84 13.92 41.0834 13.92 57.42C13.92 73.7566 27.1634 87 43.5 87C19.4756 87 0 67.5244 0 43.5C0 19.4756 19.4756 0 43.5 0C67.5244 0 87 19.4756 87 43.5Z" fill="#F0F0F0"/>
<path d="M43.5 87C31.9683 87 22.62 77.6517 22.62 66.12C22.62 54.5883 31.9683 45.24 43.5 45.24C55.0317 45.24 64.38 54.5883 64.38 66.12C64.38 77.6517 55.0317 87 43.5 87Z" fill="#F0F0F0"/>
</svg>
